<?xml version="1.0" encoding="UTF-8"?>
<svg id="Layer_2" data-name="Layer 2" xmlns="http://www.w3.org/2000/svg" viewBox="0 0 2949.58 2167.08">
  <defs>
    <style>
      .cls-1 {
        fill: #2a2774;
      }
    </style>
  </defs>
  <g id="Layer_1-2" data-name="Layer 1">
    <g>
      <path class="cls-1" d="m249.68,1984.14c0,55.55,6.31,93.2,18.96,112.93,12.63,19.73,37.55,31.06,74.74,33.98,15.16,1.19,22.75,5.96,22.75,14.29s-6.14,12.51-18.41,12.51c-3.98,0-11.37-.44-22.21-1.32-31.06-2.05-61.02-3.07-89.91-3.07-24.2,0-45.68.56-64.45,1.68l-45.49,3.34-36.29,2.51c-10.11.84-17.15,1.26-21.12,1.26-13,0-19.5-4.03-19.5-12.07,0-6.56,3.61-10.74,10.83-12.53,24.55-6.14,41.52-14.39,50.91-24.76,9.38-10.37,14.08-26.22,14.08-47.55v-41.64l.54-17.09v-317.29c0-35.06-5.42-58.58-16.25-70.55-17.7-19.58-46.58-31.41-86.66-35.5-14.81-1.78-22.21-6.84-22.21-15.18s5.05-12.5,15.16-12.5c3.97,0,10.47.44,19.5,1.32,27.8,2.35,58.31,3.51,91.53,3.51,36.46,0,80.7-1.61,132.69-4.83,61.01-3.8,103.08-5.71,126.19-5.71,68.6,0,125.46,15.17,170.6,45.51,45.13,30.34,67.7,68.51,67.7,114.52,0,29.02-10.02,55.4-30.06,79.13-20.04,23.74-47.58,41.77-82.59,54.07-7.23,2.35-10.66,5.28-10.29,8.79.36,2.92,2.17,6.44,5.42,10.54,3.25,4.1,8.12,10.98,14.62,20.63l48.2,69.35,55.78,80.32c19.13,27.22,36.19,46.09,51.18,56.62,14.98,10.54,32.58,15.8,52.81,15.8,8.3,0,16.06-.58,23.29-1.76,4.33-.88,8.3-1.32,11.92-1.32,6.5,0,9.75,3.37,9.75,10.1,0,8.48-14.78,18.15-44.34,28.98-29.56,10.84-55.76,16.25-78.61,16.25-37.12,0-71.34-14.78-102.68-44.37-31.35-29.58-72.06-85.51-122.14-167.81-19.46-32.51-35.51-53.08-48.14-61.72-12.64-8.63-33.22-12.96-61.74-12.96h-33.58l-24.37,3.51c-5.42,2.34-8.12,9.36-8.12,21.05v89.02Zm0-342.89v151.99c0,18.75,2.98,30.61,8.95,35.58,5.98,4.98,20.17,7.47,42.61,7.47,64.4,0,104.29-.95,119.68-2.86,15.38-1.9,29.76-7.83,43.15-17.79,26.41-19.33,39.62-45.97,39.62-79.95,0-44.22-17.82-80.75-53.47-109.6-35.64-28.84-80.96-43.27-135.96-43.27-24.61,0-41.53,4.17-50.75,12.52-9.22,8.35-13.84,23.65-13.84,45.91Z"/>
      <path class="cls-1" d="m1176.48,1543.73c67.51,0,126.37,11.72,176.56,35.14l35.75,16.69c7.22,3.51,13.72,5.27,19.5,5.27,7.22,0,12.64-2.34,16.25-7.03l11.38-13.62c1.8-2.34,5.05-3.51,9.75-3.51,11.19,0,16.79,9.52,16.79,28.55l.54,32.07v39.97l4.33,33.39,4.87,19.77c2.17,9.66,3.25,18.31,3.25,25.92,0,11.13-5.06,16.69-15.16,16.69-5.78,0-9.57-3.51-11.37-10.52-2.89-11.1-12.93-28.12-30.09-51.06-17.17-22.94-33.53-41.13-49.07-54.58-62.89-54.93-132.83-82.4-209.82-82.4-68.31,0-123.79,22.73-166.44,68.2-42.65,45.47-63.98,104.45-63.98,176.96,0,94.73,34.87,170.31,104.64,226.74,52.4,42.1,109.51,63.15,171.32,63.15,36.5,0,75.17-7.07,116.01-21.22,40.84-14.15,73.01-31.72,96.51-52.73l35.24-31.07c5.05-4.67,9.93-7.14,14.62-7.44,6.85-.29,10.29,2.93,10.29,9.66,0,12.01-14.27,31.19-42.79,57.55-74.74,68.53-167,102.79-276.76,102.79s-192.36-27.52-258.61-82.59c-66.26-55.05-99.38-126.66-99.38-214.81,0-48.32,12.46-95.61,37.37-141.89,24.91-46.27,58.13-83.9,99.65-112.9,68.24-47.44,147.85-71.16,238.84-71.16Z"/>
      <path class="cls-1" d="m1651.88,1691.53c0-57.83-28.4-89.46-85.2-94.9l-23.9-2.57c-7.62-.58-11.43-4.66-11.43-12.25,0-8.46,4.85-12.69,14.55-12.69l12.99.43,38.96,1.72c32.21,1.15,52.81,1.72,61.82,1.72,24.94,0,70.48-2.43,136.63-7.31,40.86-3.15,75.33-4.73,103.38-4.73,73.77,0,132.91,13.14,177.41,39.42,44.5,26.28,66.76,61.25,66.76,104.9,0,50.26-27.71,85.31-83.12,105.12-12.82,4.6-19.4,8.47-19.74,11.63-.35,5.16,6.4,8.59,20.26,10.31,43.29,6.3,77.49,21.98,102.6,47.03,25.11,25.05,37.66,56.19,37.66,93.41,0,56.7-22.95,101.59-68.84,134.66-45.9,33.08-107.98,49.61-186.25,49.61l-105.46-2.58-81.04-1.29c-51.95,0-96.98,1.72-135.07,5.16-11.78,1.14-22.86,1.72-33.25,1.72s-15.59-3.8-15.59-11.39c0-6.43,4.68-10.37,14.03-11.83,41.21-5.73,61.82-35.35,61.82-88.89v-356.4Zm119.49-37.26v123.43c0,16.92,4.85,28.75,14.55,35.48,9.69,6.74,26.66,10.11,50.91,10.11l71.69,1.29,32.21-1.29c59.22-6.02,88.84-35.41,88.84-88.17,0-42.72-16.45-77.2-49.35-103.43-32.91-26.23-76.2-39.35-129.88-39.35-31.17,0-52.13,4.23-62.86,12.69-10.74,8.46-16.1,24.88-16.1,49.24Zm0,286.3v71.28l1.56,16.32,3.65,36.5c4.16,41.22,43.71,61.83,118.65,61.83s124.37-14.74,151.43-44.23c22.2-24.61,33.31-54.1,33.31-88.46,0-67.27-36.26-108.64-108.77-124.09-41.98-8.87-89.51-13.31-142.58-13.31-24.99,0-40.76,4.94-47.36,14.82-6.59,9.88-9.89,32.99-9.89,69.34Z"/>
      <path class="cls-1" d="m2647.9,1543.73c67.51,0,126.37,11.72,176.56,35.14l35.75,16.69c7.22,3.51,13.72,5.27,19.5,5.27,7.22,0,12.64-2.34,16.25-7.03l11.38-13.62c1.8-2.34,5.05-3.51,9.75-3.51,11.19,0,16.79,9.52,16.79,28.55l.54,32.07v39.97l4.33,33.39,4.87,19.77c2.17,9.66,3.25,18.31,3.25,25.92,0,11.13-5.06,16.69-15.16,16.69-5.78,0-9.57-3.51-11.37-10.52-2.89-11.1-12.93-28.12-30.09-51.06-17.17-22.94-33.53-41.13-49.07-54.58-62.89-54.93-132.83-82.4-209.82-82.4-68.31,0-123.79,22.73-166.44,68.2-42.65,45.47-63.98,104.45-63.98,176.96,0,94.73,34.87,170.31,104.64,226.74,52.4,42.1,109.51,63.15,171.32,63.15,36.5,0,75.17-7.07,116.01-21.22,40.84-14.15,73.01-31.72,96.51-52.73l35.24-31.07c5.05-4.67,9.93-7.14,14.62-7.44,6.85-.29,10.29,2.93,10.29,9.66,0,12.01-14.27,31.19-42.79,57.55-74.74,68.53-167,102.79-276.76,102.79s-192.36-27.52-258.61-82.59c-66.26-55.05-99.38-126.66-99.38-214.81,0-48.32,12.46-95.61,37.37-141.89,24.91-46.27,58.13-83.9,99.65-112.9,68.24-47.44,147.85-71.16,238.84-71.16Z"/>
    </g>
    <path class="cls-1" d="m1879.11,1122.07l215.97-124.69v-359.27l-215.97-124.69v608.65Zm-92.4-967.64l-215.06,124.16,257.8,148.84,49.66,28.66,215.97,124.7v-248.33l-308.37-178.03Zm-264.71,926.79l-216.7,125.1,213.94,123.53,310.21-179.1v-247.04l-257.8,148.84-49.66,28.67Zm-313.17-593.16v355.01l313.17,180.81,307.45-177.51v-361.62l-307.44-177.5-313.18,180.81Zm427.29-47.5l134.76,77.8v290.58l-94.39,54.48-21.69,12.54-135.56,78.27-93.5-53.99-21.71-12.51-136.45-78.78v-290.58l94.3-54.44,21.71-12.53,135.65-78.32,95.18,54.96,21.71,12.53Zm-114.13-190.65l215.06-124.16L1519.25,0l-310.41,179.21v251.51l263.52-152.15,49.64-28.66Zm-313.17,650.49l-49.66-28.67-215.78-124.57v250.22l312.25,180.28,216.7-125.12-263.51-152.14Zm-49.66-692.52l-215.78,124.57v357.37l215.78,124.59V207.88Z"/>
  </g>
</svg>